<svg width="155" height="50" viewBox="0 0 155 50" fill="none" xmlns="http://www.w3.org/2000/svg">
<path d="M70.1777 37H65.9062V17.9805H70.1777V37ZM65.6426 13.041C65.6426 12.3848 65.8477 11.8398 66.2578 11.4062C66.6797 10.9727 67.2773 10.7559 68.0508 10.7559C68.8242 10.7559 69.4219 10.9727 69.8438 11.4062C70.2656 11.8398 70.4766 12.3848 70.4766 13.041C70.4766 13.6855 70.2656 14.2246 69.8438 14.6582C69.4219 15.0801 68.8242 15.291 68.0508 15.291C67.2773 15.291 66.6797 15.0801 66.2578 14.6582C65.8477 14.2246 65.6426 13.6855 65.6426 13.041ZM88.6348 30.4082C88.6348 29.2832 88.2363 28.416 87.4395 27.8066C86.6543 27.1973 85.2305 26.582 83.168 25.9609C81.1055 25.3398 79.4648 24.6484 78.2461 23.8867C75.9141 22.4219 74.748 20.5117 74.748 18.1562C74.748 16.0938 75.5859 14.3945 77.2617 13.0586C78.9492 11.7227 81.1348 11.0547 83.8184 11.0547C85.5996 11.0547 87.1875 11.3828 88.582 12.0391C89.9766 12.6953 91.0723 13.6328 91.8691 14.8516C92.666 16.0586 93.0645 17.4004 93.0645 18.877H88.6348C88.6348 17.541 88.2129 16.498 87.3691 15.748C86.5371 14.9863 85.3418 14.6055 83.7832 14.6055C82.3301 14.6055 81.1992 14.916 80.3906 15.5371C79.5938 16.1582 79.1953 17.0254 79.1953 18.1387C79.1953 19.0762 79.6289 19.8613 80.4961 20.4941C81.3633 21.1152 82.793 21.7246 84.7852 22.3223C86.7773 22.9082 88.377 23.582 89.584 24.3438C90.791 25.0938 91.6758 25.9609 92.2383 26.9453C92.8008 27.918 93.082 29.0605 93.082 30.373C93.082 32.5059 92.2617 34.2051 90.6211 35.4707C88.9922 36.7246 86.7773 37.3516 83.9766 37.3516C82.125 37.3516 80.4199 37.0117 78.8613 36.332C77.3145 35.6406 76.1074 34.6914 75.2402 33.4844C74.3848 32.2773 73.957 30.8711 73.957 29.2656H78.4043C78.4043 30.7188 78.8848 31.8438 79.8457 32.6406C80.8066 33.4375 82.1836 33.8359 83.9766 33.8359C85.5234 33.8359 86.6836 33.5254 87.457 32.9043C88.2422 32.2715 88.6348 31.4395 88.6348 30.4082ZM101.678 37H97.248V11.4062H101.678V37ZM121.893 26.1543H111.592V37H107.145V11.4062H123.404V14.9922H111.592V22.6035H121.893V26.1543ZM145.781 14.9922H137.801V37H133.389V14.9922H125.479V11.4062H145.781V14.9922Z" fill="white"/>
<path d="M24.3649 49.7297C37.8212 49.7297 48.7297 38.8212 48.7297 25.3649C48.7297 11.9085 37.8212 1 24.3649 1C10.9085 1 0 11.9085 0 25.3649C0 38.8212 10.9085 49.7297 24.3649 49.7297Z" fill="#B7A57A"/>
<path d="M23.3497 35.1785C30.2648 35.1785 35.8705 29.5727 35.8705 22.6576C35.8705 15.7426 30.2648 10.1368 23.3497 10.1368C16.4346 10.1368 10.8289 15.7426 10.8289 22.6576C10.8289 29.5727 16.4346 35.1785 23.3497 35.1785Z" fill="#F2F2F2"/>
<path d="M27.4104 20.6272C29.6531 20.6272 31.4712 18.8092 31.4712 16.5664C31.4712 14.3237 29.6531 12.5056 27.4104 12.5056C25.1677 12.5056 23.3496 14.3237 23.3496 16.5664C23.3496 18.8092 25.1677 20.6272 27.4104 20.6272Z" fill="#4B2E83"/>
</svg>
