<svg width="10" height="4" viewBox="0 0 10 4" fill="none" xmlns="http://www.w3.org/2000/svg">
<path d="M3.09814 3H2.74219V1.41504H3.09814V3ZM2.72021 1.00342C2.72021 0.94873 2.7373 0.90332 2.77148 0.867188C2.80664 0.831055 2.85645 0.812988 2.9209 0.812988C2.98535 0.812988 3.03516 0.831055 3.07031 0.867188C3.10547 0.90332 3.12305 0.94873 3.12305 1.00342C3.12305 1.05713 3.10547 1.10205 3.07031 1.13818C3.03516 1.17334 2.98535 1.19092 2.9209 1.19092C2.85645 1.19092 2.80664 1.17334 2.77148 1.13818C2.7373 1.10205 2.72021 1.05713 2.72021 1.00342ZM4.63623 2.45068C4.63623 2.35693 4.60303 2.28467 4.53662 2.23389C4.47119 2.18311 4.35254 2.13184 4.18066 2.08008C4.00879 2.02832 3.87207 1.9707 3.77051 1.90723C3.57617 1.78516 3.479 1.62598 3.479 1.42969C3.479 1.25781 3.54883 1.11621 3.68848 1.00488C3.8291 0.893555 4.01123 0.837891 4.23486 0.837891C4.3833 0.837891 4.51562 0.865234 4.63184 0.919922C4.74805 0.974609 4.83936 1.05273 4.90576 1.1543C4.97217 1.25488 5.00537 1.3667 5.00537 1.48975H4.63623C4.63623 1.37842 4.60107 1.2915 4.53076 1.229C4.46143 1.16553 4.36182 1.13379 4.23193 1.13379C4.11084 1.13379 4.0166 1.15967 3.94922 1.21143C3.88281 1.26318 3.84961 1.33545 3.84961 1.42822C3.84961 1.50635 3.88574 1.57178 3.95801 1.62451C4.03027 1.67627 4.14941 1.72705 4.31543 1.77686C4.48145 1.82568 4.61475 1.88184 4.71533 1.94531C4.81592 2.00781 4.88965 2.08008 4.93652 2.16211C4.9834 2.24316 5.00684 2.33838 5.00684 2.44775C5.00684 2.62549 4.93848 2.76709 4.80176 2.87256C4.66602 2.97705 4.48145 3.0293 4.24805 3.0293C4.09375 3.0293 3.95166 3.00098 3.82178 2.94434C3.69287 2.88672 3.59229 2.80762 3.52002 2.70703C3.44873 2.60645 3.41309 2.48926 3.41309 2.35547H3.78369C3.78369 2.47656 3.82373 2.57031 3.90381 2.63672C3.98389 2.70312 4.09863 2.73633 4.24805 2.73633C4.37695 2.73633 4.47363 2.71045 4.53809 2.65869C4.60352 2.60596 4.63623 2.53662 4.63623 2.45068ZM5.72314 3H5.354V0.867188H5.72314V3ZM7.40771 2.09619H6.54932V3H6.17871V0.867188H7.53369V1.16602H6.54932V1.80029H7.40771V2.09619ZM9.39844 1.16602H8.7334V3H8.36572V1.16602H7.70654V0.867188H9.39844V1.16602Z" fill="white"/>
<path d="M1 3C1.55229 3 2 2.55228 2 2C2 1.44772 1.55229 1 1 1C0.447715 1 0 1.44772 0 2C0 2.55228 0.447715 3 1 3Z" fill="#B7A57A"/>
<path d="M0.972114 2.38885C1.2636 2.38885 1.49989 2.165 1.49989 1.88885C1.49989 1.61271 1.2636 1.38885 0.972114 1.38885C0.68063 1.38885 0.444336 1.61271 0.444336 1.88885C0.444336 2.165 0.68063 2.38885 0.972114 2.38885Z" fill="#F2F2F2"/>
<path d="M1.111 1.77779C1.20305 1.77779 1.27767 1.70317 1.27767 1.61112C1.27767 1.51908 1.20305 1.44446 1.111 1.44446C1.01896 1.44446 0.944336 1.51908 0.944336 1.61112C0.944336 1.70317 1.01896 1.77779 1.111 1.77779Z" fill="#4B2E83"/>
</svg>
