<svg width="155" height="38" viewBox="0 0 155 38" fill="none" xmlns="http://www.w3.org/2000/svg">
<path d="M45.9666 36.8889H40.0339V10.4729H45.9666V36.8889ZM39.6677 3.61255C39.6677 2.70109 39.9526 1.94425 40.5222 1.34204C41.1082 0.739827 41.9382 0.438721 43.0125 0.438721C44.0867 0.438721 44.9168 0.739827 45.5027 1.34204C46.0886 1.94425 46.3816 2.70109 46.3816 3.61255C46.3816 4.50773 46.0886 5.25643 45.5027 5.85864C44.9168 6.44458 44.0867 6.73755 43.0125 6.73755C41.9382 6.73755 41.1082 6.44458 40.5222 5.85864C39.9526 5.25643 39.6677 4.50773 39.6677 3.61255ZM71.6013 27.7336C71.6013 26.1711 71.0479 24.9667 69.9412 24.1204C68.8507 23.274 66.8731 22.4195 64.0085 21.5569C61.144 20.6943 58.8653 19.734 57.1726 18.676C53.9337 16.6415 52.3142 13.9885 52.3142 10.717C52.3142 7.85246 53.4779 5.49243 55.8054 3.63696C58.1492 1.78149 61.1847 0.85376 64.9119 0.85376C67.3858 0.85376 69.5912 1.30949 71.5281 2.22095C73.4649 3.13241 74.9867 4.43449 76.0935 6.1272C77.2003 7.80363 77.7537 9.66724 77.7537 11.718H71.6013C71.6013 9.86255 71.0154 8.41398 69.8435 7.37231C68.6879 6.31437 67.0278 5.7854 64.863 5.7854C62.8448 5.7854 61.2742 6.21672 60.1511 7.07935C59.0444 7.94198 58.491 9.1464 58.491 10.6926C58.491 11.9947 59.0932 13.0852 60.2976 13.9641C61.502 14.8267 63.4877 15.6731 66.2546 16.5032C69.0216 17.317 71.2432 18.2528 72.9197 19.3108C74.5961 20.3525 75.825 21.5569 76.6062 22.9241C77.3875 24.275 77.7781 25.8619 77.7781 27.6848C77.7781 30.6471 76.6388 33.0071 74.3601 34.7649C72.0977 36.5064 69.0216 37.3772 65.1316 37.3772C62.56 37.3772 60.1918 36.9052 58.0271 35.9612C55.8787 35.0009 54.2022 33.6825 52.9978 32.0061C51.8097 30.3297 51.2156 28.3765 51.2156 26.1467H57.3923C57.3923 28.165 58.0597 29.7275 59.3943 30.8342C60.7289 31.941 62.6414 32.4944 65.1316 32.4944C67.28 32.4944 68.8914 32.0631 69.9656 31.2004C71.0561 30.3215 71.6013 29.1659 71.6013 27.7336ZM89.7166 36.8889H83.5642V1.34204H89.7166V36.8889ZM117.793 21.8254H103.486V36.8889H97.3093V1.34204H119.892V6.32251H103.486V16.8938H117.793V21.8254ZM150.971 6.32251H139.887V36.8889H133.76V6.32251H122.773V1.34204H150.971V6.32251Z" fill="white"/>
<path d="M17.5 36C27.165 36 35 28.3888 35 19C35 9.61116 27.165 2 17.5 2C7.83502 2 0 9.61116 0 19C0 28.3888 7.83502 36 17.5 36Z" fill="#B7A57A"/>
<path d="M17.0139 25.6111C22.1149 25.6111 26.2501 21.8055 26.2501 17.1111C26.2501 12.4167 22.1149 8.61108 17.0139 8.61108C11.913 8.61108 7.77783 12.4167 7.77783 17.1111C7.77783 21.8055 11.913 25.6111 17.0139 25.6111Z" fill="#F2F2F2"/>
<path d="M19.4445 15.2222C21.0553 15.2222 22.3612 13.9537 22.3612 12.3889C22.3612 10.8241 21.0553 9.55554 19.4445 9.55554C17.8337 9.55554 16.5278 10.8241 16.5278 12.3889C16.5278 13.9537 17.8337 15.2222 19.4445 15.2222Z" fill="#4B2E83"/>
</svg>
